# xmcd
#
# Track frame offsets:
#	150
#	11800
#	24327
#	35605
#	48437
#	66970
#	78170
#	95152
#	107795
#	126822
#	137297
#	148320
#
# Disc length: 2210 seconds
#
# Revision: 1
# Processed by: cddbd v1.5.2PL0 Copyright (c) Steve Scherf et al.
# Submitted via: EasyCDDAExtractor 12.0.1.1
#
DISCID=a408a00c
DTITLE=Susi Schuster   - In the Mood
DYEAR=1992
DGENRE=Country
TTITLE0=In the Mood
TTITLE1=Von den blauen Bergen kommen wir
TTITLE2=Lov me , lieb mich
TTITLE3=Beim Rodeo in Illionois
TTITLE4=Hallo hier kommt die Bimmelbahn
TTITLE5=Jambalaja
TTITLE6=Heut versuch ich´s mal mit Countrymusik
TTITLE7=Mein Freund vom Mond
TTITLE8=Oh Jonny , laß die Flasch stehn
TTITLE9=Auf den Rücken wilder Pferde
TTITLE10=Kalinka
TTITLE11=Spiel doch Lotto mein Schatz
EXTD=
EXTT0=
EXTT1=
EXTT2=
EXTT3=
EXTT4=
EXTT5=
EXTT6=
EXTT7=
EXTT8=
EXTT9=
EXTT10=
EXTT11=
PLAYORDER=
